Patient4_TMGait_0pt2_02_left_13_EMG.mot
version=1
nRows=33
nColumns=33
inDegrees=no
endheader
time	1LAddLong	2LGlutMax	3LGlutMed	4LIliopsoas	5LSemiMemb	6LBicFemLong	7LRecFem	8LVastMed	9LVastLat	10LGasMed	11LTibAnt	12lTibPost	13LPeroneusLong	14LSol	15LExtDigLong	16LFlexDigLong	17RAddLong	18RGlutMax	19RGlutMed	20RIliopsoas	21RSemiMemb	22RBicFemLong	23RRecFem	24RVastMed	25RVastLat	26RGasMed	27RTibAnt	28RTibPost	29RPeroneusLong	30RSol	31RExtDigLong	32RFlexDigLong
32.09	0.002747	-0.11841	-0.039215	-0.035095	-0.001984	-0.037842	0.023499	0.004272	0.010529	0.00351	0.033417	-0.002899	-0.057983	-0.013275	-0.089722	0.11932	0.016327	0.31418	-0.82611	0.07019	0.014801	-0.20477	0.75806	0.6279	0.21072	0.023651	0.20126	0.17242	-0.41672	0.078583	-0.003967	-0.012512
32.091	0.00473	-0.12604	0.015411	-0.006409	-0.002289	-0.041656	0.03006	0.017548	0.003967	0.005341	0.12054	-0.002747	-0.058136	0	-0.15274	0.11475	0.010376	0.43366	-1.237	0.12436	-0.010986	0.057831	0.83618	0.77957	0.14755	0.041046	0.058899	0.15182	1.778	0.2243	-0.003967	0.007172
32.092	0.006409	-0.15228	-0.028534	-0.000763	-0.001526	-0.045929	0.017395	0.005493	-0.005951	-0.027771	0.13702	-0.000458	-0.029144	0.011292	-0.20538	0.11536	0.000916	0.56122	0.27786	0.027313	0.015106	0.45517	0.55389	0.85785	0.39124	0.043945	-0.23453	0.032654	2.7841	0.28885	-0.00885	0.01236
32.093	0.006714	-0.11276	0.055695	0.010681	-0.00061	-0.05127	0.021057	0.007935	-0.018463	-0.059662	0.10483	0.000153	0.005646	0.054474	0.086212	0.13473	0.00351	0.63141	2.1851	-0.095978	0.049896	0.33035	0.40329	0.79727	0.38971	0.022888	-0.067596	0.001984	-0.58685	0.45075	-0.007324	0.009003
32.094	0.013428	-0.10132	0.12451	-0.00061	0.001068	-0.040894	0.014038	0.007629	-0.02243	0.001984	-0.10605	-0.015869	-0.03891	0.019073	0.11932	0.12497	0.013428	0.68222	2.6112	-0.084686	0.016327	-0.095215	0.27847	0.47028	0.074158	0.007935	0.095367	-0.007935	-0.59326	0.26337	-0.011292	0.003967
32.095	0.009308	-0.11246	0.090332	-0.008698	0.000305	-0.027924	0.004883	0.001984	-0.029602	0.02655	-0.067139	-0.007782	-0.016022	-0.00061	0.15335	0.10773	0.012207	0.42893	1.4192	-0.11719	-0.016327	-0.32425	0.1059	0.002594	-0.15121	0.008087	0.023041	-0.032043	0.19363	-0.159	-0.013733	-0.000305
32.096	0.007935	-0.12299	0.03479	-0.002747	-0.003662	-0.014496	0.005951	0.010223	-0.030212	0.011292	-0.11185	-0.004883	0.019531	0.023193	0.0354	0.11002	-0.042725	0.27191	0.51331	-0.13886	-0.021057	-0.20386	-0.41748	-0.45227	-0.34973	0.015259	0.066986	-0.029755	0.68665	-0.18799	-0.00351	0.003815
32.097	0.011139	-0.11246	0.004883	-0.016632	0.007477	-0.016785	0.019226	0.007324	-0.03418	-0.00412	-0.02655	-0.003815	0.02121	0.014038	-0.2005	0.1152	-0.048218	0.20783	-0.31479	-0.046082	-0.037689	-0.35202	-0.58105	-0.47714	-0.49149	0	0.085907	-0.038757	0.49225	0.045471	-0.002136	-0.003052
32.098	0.003967	-0.10056	0.028381	-0.016479	-0.005188	0.019379	0.027466	0.010223	-0.032959	-0.003967	0.09964	0.002136	-0.009155	-0.001068	-0.19699	0.11917	-0.03891	0.1506	-0.27756	0.025482	-0.069427	-0.55252	-0.36316	-0.34592	-0.49332	0.000153	0.056458	-0.048065	-0.18234	0.11108	-0.002747	0.004883
32.099	0.003052	-0.11536	0.065765	0.024719	-0.002594	0.023193	0.033722	0.013885	-0.039673	-0.000305	0.002747	0.007019	-0.044556	-0.026398	-0.030365	0.11749	-0.033264	-0.011902	-0.73807	0.14557	-0.061646	-0.46234	-0.24704	-0.18066	-0.36652	0.00824	-0.031433	-0.042267	-0.010681	0.083618	0.002289	-0.00061
32.1	0.009308	-0.13641	0.037079	0.007935	-0.005798	0.018463	0.027008	0.007019	-0.03952	-0.012512	0.00351	0.002594	-0.013123	-0.049438	-0.086365	0.1297	-0.047607	-0.093994	-1.0138	0.18555	-0.01236	-0.4187	-0.22995	-0.067596	0.085907	0.00824	-0.16892	-0.03952	-0.23758	-0.088196	-0.007324	-0.004578
32.101	-0.001984	-0.10803	0.052032	-0.010071	-0.009918	0.016937	0.023346	0.006714	-0.023956	-0.01709	0.009613	0.001526	0.015717	-0.077362	-0.16205	0.13092	-0.010376	-0.079041	-0.83176	0.16388	-0.043793	-0.26215	-0.023041	-0.10361	0.14832	0.003204	-0.069275	-0.040894	-0.11032	-0.13382	-0.000458	-0.009613
32.102	0.001984	-0.094757	0.06134	-0.009155	-0.006561	0.006256	0.018768	0.010681	-0.01358	-0.001678	-0.11551	0.008698	0.037689	-0.086975	-0.09491	0.11993	-0.00412	-0.022736	-0.54962	0.10666	-0.022888	0.28473	0.028076	-0.013885	0.10788	0.005188	-0.031128	-0.034943	-1.1678	-0.10071	-0.000458	-0.013733
32.103	0.005798	-0.13428	-0.014954	0.023804	-0.003052	0.009613	0.000305	0.006256	-0.01297	0.007477	-0.084839	0.008545	0.020294	-0.038452	0.040131	0.13077	0.006866	-0.02121	-0.003357	0.039368	0.01236	0.63004	-0.103	0.027466	0.032501	0.006256	-0.027161	-0.032654	-1.2871	0.11368	-0.006409	-0.013733
32.104	0.000763	-0.11749	0.004578	0.050201	-0.006866	0.022278	0.009918	0.009766	-0.010834	0.019226	-0.027008	0.011902	-0.032806	0.023193	0.067444	0.12543	0.022736	-0.011292	0.49072	-0.018616	0.018158	0.45853	-0.15076	0.12894	0.003967	0.019073	0.13275	-0.037231	0.099945	0.13458	0.000305	-0.021667
32.105	-0.004578	-0.091705	0.016174	-0.00824	-0.011139	0.010834	0.00412	0.000916	-0.002594	0.006104	0.053864	0.020294	-0.050201	-0.002747	0.33981	0.13901	0.028381	0.086365	0.17624	-0.071716	0.030975	0.30991	-0.22476	-0.091248	-0.029297	-0.035706	0.19867	-0.04425	0.33524	0.026855	0.001831	-0.014801
32.106	-0.001526	-0.10223	0.034027	-0.030365	-0.005798	-0.006714	0.014496	0.004883	-0.00824	-0.003662	0.093231	0.008698	-0.021362	0.018921	0.059204	0.14069	0.022888	0.20294	-0.31052	-0.057678	0.044708	0.23514	-0.016632	-0.24796	-0.022888	-0.031738	0.026855	-0.05661	0.39337	0.168	-0.00351	-0.009308
32.107	0.002747	-0.12863	0.046387	-0.015564	-0.003052	0.004883	0.010529	0.002441	-0.00824	-0.024567	0.034943	0.023499	0.001984	0.0354	-0.10742	0.14297	0.024567	0.22324	-0.26428	0	-0.001221	0.13779	0.22156	-0.22446	-0.012512	-0.049744	-0.11169	-0.088196	0.32547	0.28061	-0.002289	-0.007172
32.108	0.004578	-0.063629	0.041809	-0.003815	-0.001526	-0.005798	0.022125	0.002899	-0.000763	0.003204	0.003052	0.02121	-0.006104	0.009155	0.068359	0.13916	0.021667	0.31754	0.68222	0.014038	-0.009003	0.11063	0.27298	-0.19043	-0.015717	-0.13962	-0.052643	-0.087738	0.087128	0.11704	-0.003967	-0.002747
32.109	0.004883	-0.081177	-0.01236	0.02121	-0.002441	-0.001984	0.010834	0.005035	0.016632	0.00946	-0.026093	0.021362	-0.008545	-0.025024	-0.30518	0.1413	0.01358	0.31494	-0.48309	0.11475	-0.015869	0.062256	0.25559	-0.16937	0.006561	-0.05127	-0.039063	-0.014191	-0.31082	0.13657	0.001984	0.000916
32.11	0.005646	-0.078735	-0.017548	0.001373	-0.010071	-0.009308	0.000458	-0.001984	0.010986	-0.002747	-0.029449	0.010986	-0.010834	-0.021667	0.4602	0.14694	0.058289	0.31357	-0.6102	0.053711	-0.052338	-0.030212	0.11734	-0.12375	0.072784	-0.064392	-0.11215	0.11398	0.26794	0.050354	-0.00061	-0.016327
32.111	-0.00351	-0.1091	-0.029297	0.003204	-0.009003	0.000153	0.000763	-0.003357	0.009766	-0.005646	0.050812	0.007477	-0.021362	-0.011597	-0.094604	0.15701	0.027771	0.39597	0.17425	0.041199	-0.018158	-0.023193	-0.11643	-0.090332	0.21439	0.04715	-0.067749	0.086365	0.22812	-0.29862	-0.002136	0.000153
32.112	0.001221	-0.09491	-0.012512	0.006256	-0.007935	0.004883	0.005035	0.003815	0.005035	-0.006409	-0.005188	-0.008087	-0.040894	-0.002747	-0.14404	0.1535	0.007935	0.34164	0.89829	-0.057983	-0.056458	0.003815	-0.055389	0.084381	0.39536	0.10681	0.072479	-0.018005	-1.6255	-0.082092	-0.009155	0.005493
32.113	0.008698	-0.10223	0.003204	0.011749	-0.006409	-0.009308	0.018158	0.006561	0.02121	0.028381	0.007935	-0.002441	-0.067749	0.001068	-0.22842	0.1564	0.005798	0.2803	1.6194	-0.12787	-0.024414	-0.16357	-0.006409	0.29968	0.39734	0.10117	-0.001526	-0.05722	-1.6936	-0.20767	-0.001831	-0.000458
32.114	-0.002899	-0.11139	-0.019379	0.020599	0.003357	-0.024567	-0.003357	0.001526	0.019073	0.030975	0.010681	-0.004425	-0.060272	-0.016022	-0.096436	0.16007	0.002747	0.098724	1.2007	-0.12421	0.089264	-0.30823	0.040588	0.26794	0.47867	0.053406	-0.12756	-0.053864	-0.039063	-0.50812	-0.005188	-0.003052
32.115	0.001984	-0.11459	0.002136	-0.005035	-0.002747	-0.040436	-0.000916	-0.003052	0.024414	0.036011	-0.04425	-0.014954	-0.067291	-0.029907	0.23315	0.15579	-0.006714	-0.025177	0.49652	0.007477	-0.082397	-0.23895	0.054169	0.24521	0.5394	0.028992	0.099182	-0.022736	1.2056	-0.27023	-0.003052	-0.014496
32.116	0.001373	-0.11185	-0.021362	-0.011444	-0.00473	-0.036926	-0.00473	0.005798	0.050659	0.024109	-0.087433	-0.014496	-0.072021	-0.055084	0.1088	0.16769	-0.015411	0.019836	-0.41336	0.08255	-0.11627	0.005646	0.14175	0.16373	0.42175	0.016022	0.028076	0.058899	1.2309	-0.40283	-0.00473	-0.015717
32.117	0.003662	-0.12466	-0.041351	0.00351	-0.000763	-0.054321	-0.001526	-0.003204	0.002747	-0.000305	-0.097351	-0.015564	-0.026245	0.00946	0.47531	0.15564	-0.033264	-0.019226	-0.71869	0.085144	-0.070496	0.26428	0.04715	0.18387	0.29037	-0.042725	0.019531	0.08255	0.76309	-0.11536	-0.001221	-0.018158
32.118	0.005798	-0.090027	-0.040894	-0.011292	-0.000916	-0.077515	0.01358	0.002747	0.033722	-0.011902	0.052948	-0.015564	0.010376	0.039215	0.14297	0.18814	-0.044098	-0.005951	-0.62561	0.046387	-0.006256	0.63965	0.020142	-0.088959	0.1152	-0.036621	-0.063782	0.02243	0.82611	0.57098	0.003204	-0.010681
32.119	0.00473	-0.11734	-0.084686	-0.011749	0.003815	-0.052795	0.001831	0.001984	0.03067	-0.037842	0.11597	-0.020294	0.023804	0.075836	-0.32394	0.17761	-0.028992	-0.053101	-0.215	-0.024261	-0.002289	0.57953	0.1239	-0.30777	-0.18341	-0.036011	-0.045471	-0.005798	0.33554	0.25299	-0.001373	-0.010529
32.12	0.006866	-0.11032	-0.085907	0.001526	-0.00061	-0.055847	-0.005493	-0.000305	0.02533	-0.03952	0.070953	-0.020905	0.011139	0.03006	-0.45151	0.17349	-0.031281	-0.039215	0.21805	-0.10071	0.046234	0.39825	0.081024	-0.12726	-0.3627	-0.011597	0.055695	-0.20126	-0.81375	-0.10956	-0.003204	-0.00824
32.121	0.00824	-0.11597	-0.063171	-0.009918	0.000458	-0.044708	0.010986	-0.000458	0.018768	0.001678	0.1268	-0.020905	-0.06134	-0.053406	-0.55527	0.16129	-0.059357	-0.032501	-0.29648	-0.049591	-0.068359	0.15595	-0.000916	0.29709	-0.50629	-0.006256	0.065308	-0.12283	-1.5196	-0.28717	-0.005493	-0.010834
32.122	0.006409	-0.088196	-0.12604	-0.027618	0.003204	-0.03479	0.011139	0.000458	0.006409	0.015106	0.063019	-0.023193	-0.03891	-0.080566	-0.42313	0.15503	-0.060577	-0.026245	-0.21027	-0.089874	-0.070648	0.16449	0.039825	0.37506	-0.32394	0.010223	0.001831	0.24994	-1.6373	-0.19257	-0.000458	-0.006561
